<svg xmlns="http://www.w3.org/2000/svg" viewBox="0 0 420 520" role="img" aria-label="JOAO PEDRO 9 in FC SANJIK home kit">
  <defs>
    <linearGradient id="bg" x1="0" x2="1" y1="0" y2="1">
      <stop offset="0" stop-color="#06142c"/>
      <stop offset=".52" stop-color="#143061"/>
      <stop offset="1" stop-color="#4c1976"/>
    </linearGradient>
  </defs>
  <rect width="420" height="520" fill="url(#bg)"/>
  <circle cx="210" cy="160" r="72" fill="#b87555"/>
  <path d="M140 136c24-62 126-66 144 20-42-24-96-26-144-20z" fill="#100c0b"/>
  <path d="M88 474c7-118 58-196 122-196s115 78 122 196H88z" fill="#11121d"/>
  <path d="M132 474l22-178h20l-10 178h-32zm62 0l6-190h20l6 190h-32zm62 0l-10-178h20l22 178h-32z" fill="#8a45d9"/>
  <path d="M88 474c7-118 58-196 122-196s115 78 122 196" fill="none" stroke="#8a45d9" stroke-width="10"/>
  <circle cx="270" cy="330" r="24" fill="#10224b" stroke="#273f7d" stroke-width="6"/>
  <circle cx="270" cy="330" r="14" fill="#ffb12f"/>
  <text x="210" y="438" text-anchor="middle" fill="#fff" font-family="Arial, sans-serif" font-size="72" font-weight="900">9</text>
  <text x="210" y="498" text-anchor="middle" fill="#fff" font-family="Arial, sans-serif" font-size="34" font-weight="900">JOAO PEDRO</text>
</svg>
