<svg xmlns="http://www.w3.org/2000/svg" viewBox="0 0 420 520" role="img" aria-label="J. ALVAREZ 15 in FC SANJIK home kit">
  <defs>
    <linearGradient id="bg" x1="0" x2="1" y1="0" y2="1">
      <stop offset="0" stop-color="#07142d"/>
      <stop offset=".5" stop-color="#172c5a"/>
      <stop offset="1" stop-color="#5a1d83"/>
    </linearGradient>
  </defs>
  <rect width="420" height="520" fill="url(#bg)"/>
  <circle cx="210" cy="160" r="72" fill="#d7a07c"/>
  <path d="M136 152c14-72 122-82 148-16-52-14-96-12-148 16z" fill="#181818"/>
  <path d="M88 474c7-118 58-196 122-196s115 78 122 196H88z" fill="#10111c"/>
  <path d="M132 474l22-178h20l-10 178h-32zm62 0l6-190h20l6 190h-32zm62 0l-10-178h20l22 178h-32z" fill="#7d35d8"/>
  <path d="M88 474c7-118 58-196 122-196s115 78 122 196" fill="none" stroke="#8a45d9" stroke-width="10"/>
  <circle cx="270" cy="330" r="24" fill="#10224b" stroke="#273f7d" stroke-width="6"/>
  <circle cx="270" cy="330" r="14" fill="#ffb12f"/>
  <text x="210" y="438" text-anchor="middle" fill="#fff" font-family="Arial, sans-serif" font-size="72" font-weight="900">15</text>
  <text x="210" y="498" text-anchor="middle" fill="#fff" font-family="Arial, sans-serif" font-size="34" font-weight="900">J. ALVAREZ</text>
</svg>
