<svg xmlns="http://www.w3.org/2000/svg" viewBox="0 0 420 520" role="img" aria-label="GOLOVIN 25 in FC SANJIK home kit">
  <defs>
    <linearGradient id="bg" x1="0" x2="1" y1="0" y2="1">
      <stop offset="0" stop-color="#07142d"/>
      <stop offset=".55" stop-color="#1a2755"/>
      <stop offset="1" stop-color="#3c1470"/>
    </linearGradient>
  </defs>
  <rect width="420" height="520" fill="url(#bg)"/>
  <circle cx="210" cy="160" r="72" fill="#f0c39c"/>
  <path d="M142 148c12-72 112-86 144-24 6 12 5 28 0 42-28-30-90-36-144-18z" fill="#5b341f"/>
  <path d="M88 474c7-118 58-196 122-196s115 78 122 196H88z" fill="#11121d"/>
  <path d="M132 474l22-178h20l-10 178h-32zm62 0l6-190h20l6 190h-32zm62 0l-10-178h20l22 178h-32z" fill="#7e35d8" opacity=".95"/>
  <path d="M88 474c7-118 58-196 122-196s115 78 122 196" fill="none" stroke="#8a45d9" stroke-width="10"/>
  <circle cx="270" cy="330" r="24" fill="#10224b" stroke="#273f7d" stroke-width="6"/>
  <circle cx="270" cy="330" r="14" fill="#ffb12f"/>
  <text x="210" y="438" text-anchor="middle" fill="#fff" font-family="Arial, sans-serif" font-size="72" font-weight="900">25</text>
  <text x="210" y="498" text-anchor="middle" fill="#fff" font-family="Arial, sans-serif" font-size="34" font-weight="900">GOLOVIN</text>
</svg>
